<?xml version="1.0" encoding="utf-8"?>
<!-- Generator: Adobe Illustrator 25.2.3, SVG Export Plug-In . SVG Version: 6.00 Build 0)  -->
<svg version="1.1" id="Layer_1" xmlns="http://www.w3.org/2000/svg" xmlns:xlink="http://www.w3.org/1999/xlink" x="0px" y="0px"
	 viewBox="0 0 721 365.9" style="enable-background:new 0 0 721 365.9;" xml:space="preserve">
<style type="text/css">
	.st0{fill:#6A8E36;}
	.st1{fill:#77755A;}
</style>
<g>
	<g>
		<g>
			<g>
				<path class="st0" d="M456.4,118.4l-3.6,4.7v0.1c0,0,0,0,0.1-0.1V202l-184.7,0v-98.3c0-0.1,0.1-0.1,0.1-0.2
					c-1.8,2.9-3,5.5-3.8,7.7l0,9.9v84.7l192,0L456.4,118.4z M448.7,128.5l-0.2,0.2c-0.1,0.1-6.7,8.7-21.2,17.1l-2.3,1.3v25.3H296
					v-52.2c3.7-5.4,7.9-10.1,12.5-14C321,96,338,90.1,361.2,90.8c6.3,0.2,10.5-0.1,10.9-3.2c0.4-3.1-8.6-7-34.5-8.7
					c20-2.3,39.5-0.8,55.3,19.9c2.2,2.9,5.3,4.3,7.6,4.3c0.6,0,1-0.1,1.5-0.3c0.3-0.1,0.5-0.3,0.7-0.5
					C382.3,55.5,325.4,54,288.4,82.1c-5.6,4.3-10.7,9.2-15.2,14.8c-0.3,0.3-0.5,0.6-0.8,1v99.8c4,0,172.3,0,176.3,0
					C448.7,195.9,448.7,164.8,448.7,128.5"/>
				<path class="st1" d="M264.6,3.7v87.2c0,0,1.1-2.1,3.7-5.4v-6.6h0V7.1l184.7,0l0,98.5c1.3-2,2.5-4,3.6-6.2V3.7H264.6z
					 M272.5,11.5c0,1.8-0.1,33.1-0.1,69.2c4.6-4.9,11.4-11,21.4-17.1l2.3-1.3V37c8,0,121,0,129,0v52.3c-3.7,5.4-7.9,10.1-12.5,14
					c-12.6,10.3-29.5,16.2-52.7,15.6c-6.3-0.2-10.5,0.1-10.9,3.2c-0.4,3.1,8.7,7,34.5,8.7c-20,2.3-39.5,0.8-55.3-19.9
					c-2.2-2.9-5.3-4.3-7.6-4.3c-0.5,0-1.1,0.1-1.5,0.3c-0.3,0.1-0.5,0.3-0.7,0.5c19.1,43.6,70,47.7,106.8,25.2v0.1
					c0.5-0.4,1.2-0.8,1.8-1.3c1.9-1.2,3.8-2.6,5.7-4c6-4.5,11.5-9.9,16.2-16V11.4C444.8,11.5,276.5,11.5,272.5,11.5"/>
			</g>
			<g>
				<path class="st1" d="M151.5,284.2c-0.3,0-1.1,0.1-1.6,0c-0.5-0.1-1.1-0.3-1.5-0.5c-1.7-1.1-5.4-3.4-6.4-4.7
					c-0.4-0.4-0.5-1.1-0.5-1.4c0-2.3,7.9-3.9,8.6-3.9c0.4,0,2.3,0.3,3.1,0.6c1.6,0.6,3.7,2.2,5,2.9l0.2-0.8
					c-0.8-2.3-2.5-5.9-5.6-7.4c-0.4-0.3-1.2-0.4-1.7-0.4c-0.3,0-2.4,0.4-3.1,0.6c-3.5,1.1-7.2,4.6-9.1,7.6c-0.6,1.1-1.2,2.1-1.6,3.1
					c-0.1,0.3,0,0.7,0,1c0,0.4-0.1,0.8,0,1.1c0.3,0.8,0.7,2.3,1.2,2.3h-5.2h-2.8c-3.3-5.2-2.4-13.6-5.1-19.6c-0.9,1.8-2,3.8-2.9,5.5
					l2.8,10.8c-0.1,0.8-0.8,3-2.2,3.3c-2.3,0.5-4.9,0.8-6.6,1c-0.5,0-1.1,0.1-1.5,0.1c-0.4,0-3.1-0.2-4.6-0.5
					c-0.4-0.2-0.7-0.5-0.8-0.7c-1-1,0.2-3.3-1.1-3.9c-0.8,2.5-1.9,7.2-1.9,7.6c0,0.4,0.4,1.1,0.5,1.7c0.2,0.2,0.5,0.4,0.7,0.5
					c1.2,0.3,3.7,0.5,4,0.5c0.4,0,5-0.3,7.4-0.5c1.4-0.2,3.8-0.6,4.3-1c1.4-1.1,1.9-3.2,2.9-4.6c0.9,1.2,1.1,3.4,2.8,4.3
					c0.3,0.2,1,0.5,1.3,0.6v0h0.1h2.7h28.6l2.4-5.1h-3.9L151.5,284.2z"/>
				<path class="st1" d="M199.9,261l5.8,3.3c0.7-1.4,1.4-3,2.3-4.4l-5.7-3.5l-1.7,3.3l-6.1-3.9c-0.9,1.6-1.9,3.2-2.5,4.6
					c2.1,1.2,4.3,2.4,6.2,3.4C198.7,262.9,199.4,261.8,199.9,261z"/>
				<path class="st1" d="M218.6,263.3l5.4,3.2c0.9-1.4,1.8-2.9,2.5-4.2c-1.9-1.1-4.1-2.3-6-3.3c-0.5,0.9-1.2,1.9-1.7,2.8
					c-1.9-1.1-4.3-2.5-5.6-3.2c-1,1.4-1.7,2.9-2.4,4.3l5.8,3.4C217.2,265.2,217.9,264.1,218.6,263.3z"/>
				<path class="st1" d="M257.6,263.1l2.9-5.7c-1.4-0.7-2.9-1.5-4.4-2.4c-0.4-0.2-0.6-0.5-0.6-0.8c0-0.2,0.1-0.5,0.3-0.8
					c0.2-0.4,0.3-0.7,0.3-0.8c0-0.2-0.1-0.4-0.4-0.5c-0.2-0.2-0.6,0.1-1.1,1l-2.6,4.6c-0.2,0.4-0.3,0.8-0.3,1.2c0,0.6,0.3,1.1,1,1.5
					l0.3,0.1c2,11.7,3,19.3,3,22.7c0,0.8-0.1,1.2-0.2,1.2h-11h-1.5h-0.6l-2.5-33.2l-4.3,5.2l3.6,28h-10.9v0h-1
					c-0.6,0-1.2-0.2-1.6-0.7l1.4-9.2V272c-1.7,1.6-3.4,3.4-4.6,5.3c-0.2,0.4-0.3,0.8-0.3,1.1v5.9H211v0h-4.4c1-1.6,2.9-4.6,2.9-6.5
					c0-0.4-1-7-3.5-7c-4,0-11.2,6.3-13.2,9.9c-0.6,1.1-0.3,2.4-0.6,3.6h-9.2c-1.9,0-4.7-0.2-5.1-2.5c-2.1-13.9-1.8-19.6-3.3-34.5
					c-1.2,1.3-2.6,3-3.6,4.6c-0.2,0.3-0.1,0.7-0.1,1.1l2.9,36.5h8.8v0h26.5h1.7h8.8c0.7-1.1,1.4-2.1,2.1-3c0.5,0.7,0.7,1.5,1,1.9
					c0.4,0.5,1.2,1.1,1.6,1.1h3.9v0h8.1c0.7,0,1.3-0.3,1.8-0.9c0.1-0.1,0.5-0.7,1.2-1.9l0.4,2.8h3.2h1.5h11.8c0.5,0,1-1.3,1.5-4
					c0.5-2.5,0.7-4.4,0.7-5.7l-1.7-16.9C257,262.9,257.3,263,257.6,263.1z M201.5,284.1c-0.3,0-1.6-0.3-2.2-0.3
					c-1.1-0.3-3.2-2.6-3.2-3.5c0-1.9,4.1-3.3,4.4-3.4c0.4-0.1,0.7-0.1,1.1-0.1c2.8,0,4,3,4,4.7C205.7,283.2,202.4,284.1,201.5,284.1
					z"/>
			</g>
			<g>
				<path class="st1" d="M299.1,311.7l-5.4-3.3c-1,1.4-1.9,3.1-2.4,4.1c1.9,1,3.9,2.2,5.7,3.1c0.6-1,1-2,1.6-2.6
					c1.7,1,3.7,2.2,5.1,2.8c0.5-1.1,2-3,2-3.4v-0.6l-5-2.8C300.1,309.8,299.5,311,299.1,311.7z"/>
				<path class="st1" d="M325,301c2.2,1.3,4.6,2.5,6.9,3.7l2.7-5l-6.9-3.5C326.7,297.7,325.7,299.6,325,301z"/>
				<path class="st1" d="M376.1,280.4c0-3.6-6.3-8.8-9.4-8.8c-4.2,0-10,5.6-13.1,7.7c-1.6,1-3.2,2.2-4.5,2.8
					c0.5-3.2,1.1-5.1,1.1-10.1c0-0.4-0.5-7-0.5-10.5c0.2,0,0.4,0.2,0.4,0.2l3.1-6.2c-1.6-0.7-4.2-1.9-5.1-3c-0.5-0.8,1-2.1-0.3-2.9
					c-0.7,0.8-4.1,6.1-4.1,7.1c0,0.4,0.2,0.9,0.3,1c0.3,0.7,1.3,1.2,1.4,1.8c0.6,4.5,0.8,9.6,1.1,13.5c0.2,1.2,0.3,2.8,0.3,3.9
					c0.2,1.6,0.5,4.2,0.5,4.6c0,1.6-2.2,2.9-3.2,2.9h-5.4h-0.7c-0.4,0-0.9-0.6-1.2-0.8c-0.4-0.3-0.7-0.8-0.7-1.1v-5.2
					c0-0.5-0.2-2.1-0.3-3.1c-0.1-0.7-0.2-1.8-0.5-2.5c-2.3,1.8-2.9,3.7-3.7,5.2c-0.2,0.3-0.2,0.7-0.2,1.1c0,0.4,0.6,3.9,0.8,6.4
					h-13.4v0h-4.4h-11.1c-1,2.1-1.9,3.9-2.8,5.3c2.8,1.4,10.7-1,11,5c-0.9,0.7-3.2,1.9-4.6,2.4c-2.6,1-5.2,1.3-7.8,1.5
					c-1.1,0.1-3.3,0.3-3.7,0.3c-3.5,0-10.2-0.8-10.2-7.4c0-3.2,4-10,3.9-10.8v-0.8c-0.2,0-0.4-0.2-0.4-0.2
					c-3.1,2.8-6.4,10.4-6.4,15.5c0,6.7,5.4,9.3,10.9,9.3c0.4,0,4.9-0.4,6.9-1c3.8-1,7.8-2.4,10.5-4c0.4-0.3,0.5-0.8,0.7-1.1
					c2.4-3.1,3.5-6,5.2-8.9h0.3v0h13.5c0.7-1,1.5-2.2,2.2-3c0.4,1.1,0.5,2,1.1,3h5.2v0h32.7C373.4,289.4,376.1,281.1,376.1,280.4z
					 M351.8,284.1c3.5-1.8,7.8-7,12.1-7c2.4,0,8.4,3.6,8.4,5.7c0,0.6-1.4,1.3-1.9,1.3H351.8z"/>
				<path class="st1" d="M366.8,262.2l-5.8-3.6c-0.9,1.5-1.7,3-2.4,4.4c1.9,1,4,2.4,5.7,3.2L366.8,262.2z"/>
				<path class="st1" d="M410.5,275.3c0,0.4,3.3,6,3.3,8.5c0,0.4,0.1,0.5-0.1,0.5h-13.3c-0.9,0-1.8-0.4-1.9-1.2
					c-0.3-2.7-1-6.8-2.4-9.2c-0.5-1-1.4-2-2.4-2.7c-0.5-0.4-1.1-0.5-1.6-0.5c-0.5,0-0.9,0.2-1,0.3c-1,0.5-2.4,1.9-3,2.8
					c-0.9,1.2-1.8,3.1-2.3,4.1c-0.5,1.2-0.9,2.6-1.1,3.9c-0.1,0.6-0.1,1.1-0.1,1.6c0,0.4,0.1,2.1,0.4,2.8c2.2,4,7.1,2.6,10.6,3.2
					c-1.7,4.7-7.8,10.3-12.1,11.8c-1.2,0.4-2.8,0.6-3.1,0.6c-0.5,0-0.9,0-1.3-0.1c-1.5-0.3-3.7-1-5.1-1.4c-0.3-0.1-1-0.3-1.4-0.3
					c-0.5,0-0.6,0.4-0.8,0.7c1.3,1.4,4.1,2.3,5.7,2.5c3.1,0.6,7.5,1.8,7.9,1.8c0.4,0,1.8-0.2,2.4-0.4c1-0.4,2.3-1.1,3-1.7
					c4-3.4,5.9-8.3,7-12c0.2-0.5,0.1-1,0.4-1.7h0.9v0h16c0.7-2.8,1.6-7.9,1.6-8.3c0-2.8-2.3-9.3-3.9-11
					C412.2,271.9,410.5,274.8,410.5,275.3z M393.6,283.6c-0.3,0-0.9,0.1-1.5-0.1c-1.2-0.2-2.6-0.5-3.6-1.1c-0.6-0.3-1.4-1-1.4-1.4
					c0-1.4,3.1-4,3.4-4c0.3-0.1,0.3-0.1,0.7-0.1c0.4,0,0.5,0,0.7,0.1c0.4,0.1,1,0.4,1.5,1c1.2,1.3,2.1,3.9,2.1,5.3
					C395,283.5,394,283.6,393.6,283.6z"/>
				<path class="st1" d="M403.9,299.9l5.7,3.6c1-1.6,1.9-3.1,2.5-4.4c-1.9-1-3.9-2.4-5.8-3.2C405.5,297.1,404.8,298.4,403.9,299.9z"
					/>
				<path class="st1" d="M424.7,240.8c-0.6-0.1-1.1-0.4-1.6-0.8v-0.3c0-1.5,2.9-2.1,3.8-2.1c0.4,0,1,0.1,1.5,0.4
					c0.4,0.2,0.8,0.6,1,0.6c0.4-0.7,0.8-1.8,0.8-2.5c-0.2-0.2-0.4-0.4-0.6-0.5c-0.3-0.3-1.2-0.3-1.7-0.3c-2.9,0-6.8,2.9-6.8,6.1
					c0,0.4,0.2,0.8,0.3,0.9c0.8,1,3.1,1,4.3,1.4c-1.4,0.9-3.9,2.7-3.9,3.1v0.6c3.1-1.8,7.2-3.8,10-3.7c0.5-0.6,1.1-1.5,1.5-2.2
					C430.4,241.5,427.4,241.3,424.7,240.8z"/>
				<path class="st1" d="M425.9,256.8l3.2,32.6c1.5-3,2.5-6.6,2.5-9l-1.8-32.1C428.7,250.1,425.9,254.2,425.9,256.8z"/>
			</g>
			<path class="st1" d="M132.8,361.8c-1.7-2.2-3-5.8-3-5.8c-1.3-3.8-2.8-8.3-2.8-8.3h-12.3c0,0-1.5,4.5-2.7,8c0,0-1.4,3.4-1.2,6.1
				h-4.2c0.1-2.7,1.5-6.1,1.5-6.1l8.2-23.7c0,0,1.3-4.2,1-5.6h5.4c2.8,1.4,4.7,6.8,4.7,6.8l7.6,22.6c0,0,1.5,3.7,3.5,5.9
				L132.8,361.8z M122.4,334c0,0-1.2-3.3-2.4-4.5c0.2,2.1-1,5.7-1,5.7c-1,3-2.1,6.3-3.2,9.5H126C124.3,339.6,122.6,334.6,122.4,334"
				/>
			<path class="st1" d="M151,362.2c-3.4,0-8-1.6-9.2-4.9v-3.9c0-19.3-0.1-21.7-0.1-21.7s0-4.1-1.2-5.2h4.7c1.1,1.6,1.1,5.8,1.1,5.8
				v6.6c2.7-3,5.6-2.8,5.6-2.8c7.2,0,10.8,5.4,10.8,13C162.8,357.5,157.4,362.2,151,362.2 M151.9,338c0,0-3.7,0-5.6,2.9v15.3
				c1.3,3.8,5.4,3.8,5.4,3.8c3.6,0,6.2-4.4,6.2-12C157.9,343.4,156.4,338,151.9,338"/>
			<path class="st1" d="M184,361.8c0,0-0.8-1-1-2.6c-2.8,2.9-6.3,2.9-6.3,2.9c-6.2,0-8.7-3-8.7-7.1l-0.1-18.8h4.6l0.1,18.7
				c0,1.9,0.6,4.8,4.9,4.8c2.9,0,4.4-1.2,5.5-2.1l-0.1-21.3h4.7v20.3c0,0,0,3.6,1.6,5.3H184z"/>
			<path class="st1" d="M212.3,361.9h-8c-1.3-0.7-1.3-5.2-1.3-5.2v-24.3c0,0,0-3.4-1.5-5.7c0,0,3.6,0,11-0.1
				c8.7,0,15.6,6.5,15.6,17.7C228.1,353.9,221.1,361.9,212.3,361.9 M211,329.5h-4c0.8,1.4,0.8,3.1,0.8,3.1v23.1c0,0,0,1.7,0.6,2.8
				h4.5c5.1-0.1,10-7,10-14.7C223,336.1,218.9,329.5,211,329.5"/>
			<path class="st1" d="M250.8,361.8c-1-1.1-1-5.1-1-5.1v-13.5c0-3.8-2.2-4.5-4.9-4.5c0,0-3.1,0-5.2,3.2v14.8l0,0.1
				c0,0,0,3.4,1.7,5.1H236c-1-0.8-1-5-1-5v-0.1v-25c0,0,0-4-1.3-5.1h4.7c1.3,1.6,1.3,5.8,1.3,5.8v7.2c1.4-1.8,3.5-3.4,7.3-3.4
				c3.2,0,7.5,1.7,7.5,7v13.6c0,0,0,3.3,1.5,5.1H250.8z"/>
			<path class="st1" d="M274.6,361.9c-0.9-1.3-0.9-3-0.9-3c-0.7,1.5-4.1,3.2-7.2,3.2c-3.1,0-5.6-1.1-6.3-4.8
				c-1.9-9.4,11.4-10.2,13-12.9c1.9-3.2-0.2-7-3.6-6.5c0,0-4,0.5-5.6,4.1v-4.1c2.4-1.9,6.3-1.9,6.3-1.9c4,0,7.8,3.1,7.8,6.5v14.3
				c0,0,0,3.4,1.6,5.1H274.6z M273.6,346.2c-2.5,2.1-9,2.5-9,9.5c0,1.6,1.5,3.8,3.6,3.8c2.7,0,3.9-0.9,5.5-2V346.2z"/>
			<path class="st1" d="M293.8,362.2c-3.3,0-8-1.6-9.2-4.9v-3.9c0-19.3-0.1-21.7-0.1-21.7s0-4.1-1.2-5.2h4.7
				c1.1,1.6,1.1,5.8,1.1,5.8v6.6c2.7-3,5.6-2.8,5.6-2.8c7.2,0,10.8,5.4,10.8,13C305.5,357.5,300.1,362.2,293.8,362.2 M294.6,338
				c0,0-3.7,0-5.6,2.9v15.3c1.3,3.8,5.4,3.8,5.4,3.8c3.6,0,6.2-4.4,6.2-12C300.6,343.4,299.2,338,294.6,338"/>
			<path class="st1" d="M314.2,331.9c-1.6,0-2.9-1.3-2.9-2.8c0-1.6,1.3-2.8,2.9-2.8c1.5,0,2.9,1.3,2.9,2.8
				C317.1,330.6,315.8,331.9,314.2,331.9 M313,361.8c-1.1-1.3-1.1-5.1-1.1-5.1v-0.1v-20.4h4.6v20.4c0,0,0,3.4,1.6,5.1H313z"/>
			<path class="st1" d="M349.9,348.1h-6.1v7.2c0,0,0,4.3,2.3,6.6h-3.1h-2.7c-1.3-1.5-1.3-6-1.3-6l0.1-22c0,0,0-5.5-1.6-7.3h11.1
				c6.5,0,12.5,3,12.5,10.3C361.1,344.1,355,348.1,349.9,348.1 M347.7,329.5h-4.6c0.3,0.3,0.7,2.7,0.7,4.7v11.1h4.6
				c3.9,0,7.4-2.7,7.4-8.1C355.9,333.6,353.3,329.5,347.7,329.5"/>
			<path class="st1" d="M382.1,360.2c-2,1.9-7.1,1.9-7.1,1.9c-6.5,0-11-5.3-11-12.5c0-7.1,3.6-13.6,10.5-13.6
				c6.7-0.1,10.4,5.6,5.5,10.9c-3.4,3.7-8.2,4.4-10.9,7.2c1.9,6.9,8.4,8.4,13,2.3V360.2z M374.5,338c-3.6,0-5.9,5.1-5.9,11.7
				c0,0.9,0.1,1.7,0.2,2.5c2.7-2.5,7.2-3.4,8.6-7C379.1,341.2,377,338,374.5,338"/>
			<path class="st1" d="M404.7,361.8c-1.2-0.8-1.2-5.1-1.2-5.1v-13.2c0-1.9-0.5-4.6-4.5-4.6c-3.4,0-5.3,2.9-5.9,4.3v13.5
				c0,3.3,1.4,5.1,1.6,5.1h-5.2c-1-1-1-5.1-1-5.1v-20.5h4.5v4.8c1.9-5,7.5-5,7.5-5c2.5,0,6.5,1.3,7.3,5.1c0.3,1.3,0.3,2,0.3,3.1
				c0,0,0,1,0.1,12.4c0,0,0,3.3,1.5,5.1H404.7z"/>
			<path class="st1" d="M421.4,362.2c0,0-3.9,0-6.4-1.9v-4.1c1.5,3.6,5.4,3.6,5.4,3.6c3.4,0,5.2-2.2,5.2-4.4c0-2-2.4-3.9-5.6-6.1
				c-3.5-2.5-5.2-4.5-5.2-7.8c0-3.3,3.6-5.4,7.7-5.4c0,0,3.8,0,6.4,1.8v4.1c-2.2-4-5.5-4-5.5-4c-4.8,0-6,4.1-1.2,7
				c5.5,3.4,8.2,5.7,8.2,9.2C430.5,359.7,426,362.2,421.4,362.2"/>
			<path class="st1" d="M438.8,331.9c-1.6,0-2.9-1.3-2.9-2.8c0-1.6,1.3-2.8,2.9-2.8c1.5,0,2.9,1.3,2.9,2.8
				C441.7,330.6,440.3,331.9,438.8,331.9 M437.6,361.8c-1.1-1.3-1.1-5.1-1.1-5.1v-0.1v-20.4h4.6v20.4c0,0,0,3.4,1.6,5.1H437.6z"/>
			<path class="st1" d="M525.9,329.5h-5.6c0,0,0.8,1.3,0.8,4.3v4.9v0.6h4.6c0,0,5.3,0,7.1,3.7c-2.6-0.8-5-0.8-7.1-0.8h-4.6v12.7
				c0,0,0,5.2,2.2,7h-5.7c-1.3-1-1.3-5-1.3-5v-23c0,0,0-5.7-1.6-7.2h13.8c0,0,8.2,0,8.8,4.5C534.5,329.4,530.1,329.5,525.9,329.5"/>
			<path class="st1" d="M557.3,361.8c0,0-0.8-1-1-2.6c-2.8,2.9-6.3,2.9-6.3,2.9c-6.2,0-8.7-3-8.7-7.1l0-18.8h4.6l0,18.7
				c0,1.9,0.6,4.8,5,4.8c2.9,0,4.4-1.2,5.5-2.1l-0.1-21.3h4.7v20.3c0,0,0,3.6,1.6,5.3H557.3z"/>
			<path class="st1" d="M583.7,361.8c-1.2-0.8-1.2-5.1-1.2-5.1v-13.2c0-1.9-0.5-4.6-4.5-4.6c-3.4,0-5.3,2.9-5.9,4.3v13.5
				c0,3.3,1.4,5.1,1.6,5.1h-5.2c-1-1-1-5.1-1-5.1v-20.5h4.5v4.8c1.9-5,7.5-5,7.5-5c2.5,0,6.5,1.3,7.3,5.1c0.3,1.3,0.3,2,0.3,3.1
				c0,0,0,1,0.1,12.4c0,0,0,3.3,1.5,5.1H583.7z"/>
			<path class="st1" d="M604.2,362.2c-6.4,0-10.9-5.9-10.9-12.2c0-8.6,4.7-14,10.6-14c0,0,3.9,0,5.8,1.9v-6.7c0,0,0-3.2-1.3-4.8h4.6
				c1.3,1.4,1.3,5.4,1.3,5.4v25C611.6,362.2,604.2,362.2,604.2,362.2 M604.5,337.9c-3.6,0-6,4.3-6.3,10.6c-0.4,7,3.4,11.5,8,11.5
				c0,0,1.6,0,3.5-1.3c0,0,0-1.9,0-16.8C608.3,337.9,604.5,337.9,604.5,337.9"/>
			<path class="st1" d="M459,362.2c-6.3,0-11.5-4.3-11.5-13.1c0-7.2,5.2-13,11.5-13c6.3,0,11.5,4.8,11.5,13
				C470.5,356.3,465.3,362.2,459,362.2 M458.8,338.1c-2.7,0-6.3,3.1-6.3,10.7c0,7.2,3.1,11.4,6.3,11.4c3,0,6.5-4.3,6.5-11.4
				C465.3,341.3,461.6,338.1,458.8,338.1"/>
			<path class="st1" d="M492.6,361.8c-1.2-0.8-1.2-5.1-1.2-5.1v-13.2c0-1.9-0.5-4.6-4.5-4.6c-3.4,0-5.3,2.9-5.9,4.3v13.5
				c0,3.3,1.4,5.1,1.6,5.1h-5.2c-1-1-1-5.1-1-5.1v-20.5h4.5v4.8c1.9-5,7.5-5,7.5-5c2.5,0,6.6,1.3,7.3,5.1c0.3,1.3,0.3,2,0.3,3.1
				c0,0,0,1,0.1,12.4c0,0,0,3.3,1.5,5.1H492.6z"/>
			<path class="st1" d="M487.2,288.7c0.3-1.2,0.3-3.7,0.3-4.1c0-0.4,0-2.2-0.1-2.9c0-0.8-0.4-2.2-0.5-2.8c-0.3-1.1-0.6-2.4-1-3.4
				c-0.8-1.7-1.6-4.4-3.7-5.9c-0.5-0.4-1.5-0.6-1.8-0.6c-3.4,0-7.9,7.9-7.9,11.6c0,3.2,0.6,6,4.9,6c0.4,0,2.3-0.2,2.9-0.3
				c1.7-0.7,3.1-2.5,4-4c0.4,1.1,0.7,2,0.9,3.1c0.2,0.8,0.1,1.7,0.1,2c0,0.4,0,2.1-0.3,2.9c-0.1,0.2-0.3,0.5-0.3,0.7
				c-2.2,2.5-6.6,3.8-8.4,4.3c-1.8,0.4-3.7,0.8-5.4,1c-0.9,0.1-2.5,0.1-2.9,0.1c-4.8,0-9.4-0.4-9.4-7.2c0-5,2.5-6.7,2.5-9
				c0-0.4-0.2-0.9-0.5-1c-1.6,1.1-5.1,9.5-5.1,13.8c0,7.6,6.5,9,11.8,9c0.5,0,3.8-0.1,5.4-0.4c4.7-0.7,11.9-4,13.9-9.7
				C486.7,290.8,487,289.6,487.2,288.7z M480.8,280.6c-0.2,0.1-0.4,0.1-0.5,0.2c-0.4,0.1-1,0.1-1.3,0.1c-1,0-4.2-0.4-4.2-2.3
				c0-1.8,2.9-4,4.3-4c1.3,0,3.8,3.9,3.8,4.4C482.8,279.3,481.4,280.3,480.8,280.6z"/>
			<path class="st1" d="M476.9,260.2l5.4,3.2l2.3-4.4c-1.9-1.2-3.9-2.5-5.5-3.4c-0.6,1.1-1,2.1-1.7,3.3l-5.9-3.9
				c-1.1,1.6-2,3.3-2.7,4.7l6.2,3.4C475.7,261.9,476.3,260.7,476.9,260.2z"/>
			<path class="st1" d="M508.8,274.7c-0.4-1-2.7-5-4.3-5c-2.8,0-7.7,8.8-7.7,11.5c0,2.4,1,6.8,5,6.8c2.9,0,4.4-1.5,5.9-4.7
				c0.2,0.2,0.1,0.4,0.3,0.4c0,0.7,0.2,1.8,0.2,2.2c0,4.9-4.9,9.1-10.4,12.9c-1.5,0.9-4.1,2.2-5.7,2.2c-0.5,0-6.1-1.2-6.5-1.2
				c-0.4,0-0.8,0.4-0.9,0.8c1.7,1.3,10.5,3.1,10.5,3.1c1.2,0.2,2.1,0.2,2.4,0.2c5.9,0,10.2-7.7,11.8-13.1c0.7-2.3,0.8-4.8,1-6.2
				c0.1-0.7,0.2-1.5,0.2-1.9c0-0.4-0.3-3.2-0.6-4.7C509.7,276.7,509.1,275.4,508.8,274.7z M503.5,282.3c-1.1,0-4.4-0.6-4.4-2.6
				c0-1.1,2.6-3.9,3.8-3.9c2.5,0,3.6,4.8,3.7,5.4C505.3,282.2,504.7,282.3,503.5,282.3z"/>
			<path class="st1" d="M561.9,257.3l-6.9-3.6l-2.6,4.9c2.2,1.4,4.4,2.7,6.8,3.9C560,260.9,561.1,259,561.9,257.3z"/>
			<path class="st1" d="M605.2,271.7c-0.4,0-2,0.3-2.7,0.6c-3.8,1.1-9.2,6-13.5,8.7c-0.9,0.5-2.7,1.7-3.7,2.1
				c-0.6,0.2-1.7,1.1-2.9,1.2c-1.5-0.1-3.1,0-4.3,0c-0.6,0-1.1-0.3-1.3-0.7c2-2.5,1.8-7.5,2.1-9.4c-1.5,1.4-3.3,3.3-4.7,4.8
				c-0.3,0.3,0.8,5.3-1.9,5.3h-8.5h-1.2c-1.5-0.1-3.1-0.5-3.1-2.4l2.3-9.3V270c-1.7,1.2-5.1,4.4-5.4,5.5c-0.6,1.9-0.2,6.6-1.8,8.8
				c-1.3,0-10.5-0.1-13.5,0v0h-0.9c-3.3-5.2-2.4-13.6-5.1-19.6c-0.9,1.8-2,3.8-2.9,5.5L535,281c-0.1,0.8-0.8,3-2.2,3.3
				c-2.3,0.5-4.9,0.8-6.6,1c-0.5,0-1.1,0.1-1.5,0.1c-0.4,0-3.1-0.2-4.6-0.5c-0.4-0.2-0.7-0.5-0.8-0.7c-0.9-1,0.2-3.3-1.1-3.9
				c-0.9,2.5-1.9,7.2-1.9,7.6c0,0.4,0.4,1.1,0.5,1.7c0.2,0.2,0.5,0.4,0.7,0.5c1.2,0.3,3.7,0.5,4,0.5c0.4,0,5-0.3,7.4-0.5
				c1.4-0.2,3.8-0.6,4.3-1c1.4-1.1,1.9-3.2,2.9-4.6c0.9,1.2,1.1,3.4,2.8,4.3c0.4,0.3,1.1,0.6,1.4,0.6h0.8v0h14.2c0.4-1,0.9-2,1.6-3
				c0.6,0.8,1.7,3,2.8,3h4.2v0h7.6c0.5,0,1.7-1,2.3-1.8c0.4,0.5,0.9,1.1,1.2,1.8c1.5,0,3,0,4.4,0v0.1h29.7c0.4,0,1.5-0.8,1.8-1.2
				c0.9-1.6,1.7-3.2,2.4-4.5c0.5-1.1,1.1-2.7,1.1-3.1C614.4,276.8,608.2,271.7,605.2,271.7z M610.2,283.6c-0.4,0.3-1.6,0.7-2,0.7
				h-19.6c2.4-0.7,7.1-5.1,10.5-6.6c0.9-0.4,2.7-0.6,3.1-0.6c0.4,0,1.2,0.3,1.7,0.3C605.9,277.4,610.6,281.6,610.2,283.6z"/>
		</g>
	</g>
</g>
</svg>
